<svg width="15" height="14" viewBox="0 0 15 14" fill="none" xmlns="http://www.w3.org/2000/svg">
<path fill-rule="evenodd" clip-rule="evenodd" d="M3.04229 3.5637C3.03235 3.45368 3.04543 3.3428 3.08071 3.23812C3.11599 3.13344 3.17269 3.03726 3.24719 2.9557C3.32169 2.87414 3.41237 2.809 3.51344 2.76442C3.61451 2.71984 3.72376 2.6968 3.83422 2.69678H13.476C13.5951 2.69683 13.7127 2.72362 13.82 2.77518C13.9274 2.82673 14.0218 2.90173 14.0962 2.99465C14.1707 3.08757 14.2234 3.19602 14.2504 3.31202C14.2773 3.42801 14.2779 3.54858 14.2521 3.66482L13.4374 7.33702C13.2972 7.96809 12.946 8.53247 12.4418 8.93696C11.9375 9.34144 11.3104 9.56182 10.6639 9.5617H6.17934C5.47022 9.56174 4.78673 9.29655 4.26321 8.81823C3.7397 8.33992 3.41402 7.68309 3.3502 6.97685L3.04229 3.5637ZM4.2069 3.83298L4.48186 6.87459C4.52017 7.29853 4.71573 7.69279 5.03008 7.9798C5.34443 8.26682 5.75481 8.42581 6.18048 8.4255H10.6651C11.0528 8.42541 11.429 8.29307 11.7314 8.05035C12.0338 7.80763 12.2444 7.46903 12.3285 7.09047L13.0522 3.83298H4.2069Z" fill="#62D0B6"/>
<path fill-rule="evenodd" clip-rule="evenodd" d="M0.692871 0.790024C0.692871 0.639355 0.752724 0.494856 0.859264 0.388317C0.965803 0.281777 1.1103 0.221924 1.26097 0.221924H3.25387C3.39283 0.222065 3.52692 0.273134 3.63077 0.365468C3.73462 0.457802 3.80103 0.584997 3.81742 0.722988L4.27418 4.58721C4.29181 4.73697 4.24922 4.88761 4.15578 5.00597C4.06235 5.12434 3.92572 5.20074 3.77595 5.21837C3.62619 5.236 3.47555 5.19341 3.35719 5.09997C3.23882 5.00654 3.16242 4.86991 3.14479 4.72014L2.74826 1.35699H1.26097C1.1103 1.35699 0.965803 1.29714 0.859264 1.1906C0.752724 1.08406 0.692871 0.940694 0.692871 0.790024ZM5.80578 12.5304C5.95645 12.5304 6.10094 12.4705 6.20748 12.364C6.31402 12.2575 6.37388 12.113 6.37388 11.9623C6.37388 11.8116 6.31402 11.6671 6.20748 11.5606C6.10094 11.454 5.95645 11.3942 5.80578 11.3942C5.65511 11.3942 5.51061 11.454 5.40407 11.5606C5.29753 11.6671 5.23768 11.8116 5.23768 11.9623C5.23768 12.113 5.29753 12.2575 5.40407 12.364C5.51061 12.4705 5.65511 12.5304 5.80578 12.5304ZM5.80578 13.6666C6.02959 13.6666 6.25121 13.6225 6.45798 13.5369C6.66476 13.4512 6.85264 13.3257 7.0109 13.1674C7.16916 13.0092 7.2947 12.8213 7.38035 12.6145C7.46599 12.4077 7.51008 12.1861 7.51008 11.9623C7.51008 11.7385 7.46599 11.5169 7.38035 11.3101C7.2947 11.1033 7.16916 10.9154 7.0109 10.7572C6.85264 10.5989 6.66476 10.4734 6.45798 10.3877C6.25121 10.3021 6.02959 10.258 5.80578 10.258C5.35377 10.258 4.92027 10.4375 4.60065 10.7572C4.28103 11.0768 4.10147 11.5103 4.10147 11.9623C4.10147 12.4143 4.28103 12.8478 4.60065 13.1674C4.92027 13.487 5.35377 13.6666 5.80578 13.6666ZM10.9891 12.5304C11.1398 12.5304 11.2843 12.4705 11.3908 12.364C11.4974 12.2575 11.5572 12.113 11.5572 11.9623C11.5572 11.8116 11.4974 11.6671 11.3908 11.5606C11.2843 11.454 11.1398 11.3942 10.9891 11.3942C10.8385 11.3942 10.694 11.454 10.5874 11.5606C10.4809 11.6671 10.421 11.8116 10.421 11.9623C10.421 12.113 10.4809 12.2575 10.5874 12.364C10.694 12.4705 10.8385 12.5304 10.9891 12.5304ZM10.9891 13.6666C11.2129 13.6666 11.4346 13.6225 11.6413 13.5369C11.8481 13.4512 12.036 13.3257 12.1942 13.1674C12.3525 13.0092 12.478 12.8213 12.5637 12.6145C12.6493 12.4077 12.6934 12.1861 12.6934 11.9623C12.6934 11.7385 12.6493 11.5169 12.5637 11.3101C12.478 11.1033 12.3525 10.9154 12.1942 10.7572C12.036 10.5989 11.8481 10.4734 11.6413 10.3877C11.4346 10.3021 11.2129 10.258 10.9891 10.258C10.5371 10.258 10.1036 10.4375 9.784 10.7572C9.46438 11.0768 9.28482 11.5103 9.28482 11.9623C9.28482 12.4143 9.46438 12.8478 9.784 13.1674C10.1036 13.487 10.5371 13.6666 10.9891 13.6666Z" fill="#62D0B6"/>
</svg>
