<svg width="16" height="16" viewBox="0 0 16 16" fill="none" xmlns="http://www.w3.org/2000/svg">
<path fill-rule="evenodd" clip-rule="evenodd" d="M3.54229 4.5637C3.53235 4.45368 3.54543 4.3428 3.58071 4.23812C3.61599 4.13344 3.67269 4.03726 3.74719 3.9557C3.82169 3.87414 3.91237 3.809 4.01344 3.76442C4.11451 3.71984 4.22376 3.6968 4.33422 3.69678H13.976C14.0951 3.69683 14.2127 3.72362 14.32 3.77518C14.4274 3.82673 14.5218 3.90173 14.5962 3.99465C14.6707 4.08757 14.7234 4.19602 14.7504 4.31202C14.7773 4.42801 14.7779 4.54858 14.7521 4.66482L13.9374 8.33702C13.7972 8.96809 13.446 9.53247 12.9418 9.93696C12.4375 10.3414 11.8104 10.5618 11.1639 10.5617H6.67934C5.97022 10.5617 5.28673 10.2965 4.76321 9.81823C4.2397 9.33992 3.91402 8.68309 3.8502 7.97685L3.54229 4.5637ZM4.7069 4.83298L4.98186 7.87459C5.02017 8.29853 5.21573 8.69279 5.53008 8.9798C5.84443 9.26682 6.25481 9.42581 6.68048 9.4255H11.1651C11.5528 9.42541 11.929 9.29307 12.2314 9.05035C12.5338 8.80763 12.7444 8.46903 12.8285 8.09047L13.5522 4.83298H4.7069Z" fill="white"/>
<path fill-rule="evenodd" clip-rule="evenodd" d="M1.19287 1.79002C1.19287 1.63935 1.25272 1.49486 1.35926 1.38832C1.4658 1.28178 1.6103 1.22192 1.76097 1.22192H3.75387C3.89283 1.22206 4.02692 1.27313 4.13077 1.36547C4.23462 1.4578 4.30103 1.585 4.31742 1.72299L4.77418 5.58721C4.79181 5.73697 4.74922 5.88761 4.65578 6.00597C4.56235 6.12434 4.42572 6.20074 4.27595 6.21837C4.12619 6.236 3.97555 6.19341 3.85719 6.09997C3.73882 6.00654 3.66242 5.86991 3.64479 5.72014L3.24826 2.35699H1.76097C1.6103 2.35699 1.4658 2.29714 1.35926 2.1906C1.25272 2.08406 1.19287 1.94069 1.19287 1.79002ZM6.30578 13.5304C6.45645 13.5304 6.60094 13.4705 6.70748 13.364C6.81402 13.2575 6.87388 13.113 6.87388 12.9623C6.87388 12.8116 6.81402 12.6671 6.70748 12.5606C6.60094 12.454 6.45645 12.3942 6.30578 12.3942C6.15511 12.3942 6.01061 12.454 5.90407 12.5606C5.79753 12.6671 5.73768 12.8116 5.73768 12.9623C5.73768 13.113 5.79753 13.2575 5.90407 13.364C6.01061 13.4705 6.15511 13.5304 6.30578 13.5304ZM6.30578 14.6666C6.52959 14.6666 6.75121 14.6225 6.95798 14.5369C7.16476 14.4512 7.35264 14.3257 7.5109 14.1674C7.66916 14.0092 7.7947 13.8213 7.88035 13.6145C7.96599 13.4077 8.01008 13.1861 8.01008 12.9623C8.01008 12.7385 7.96599 12.5169 7.88035 12.3101C7.7947 12.1033 7.66916 11.9154 7.5109 11.7572C7.35264 11.5989 7.16476 11.4734 6.95798 11.3877C6.75121 11.3021 6.52959 11.258 6.30578 11.258C5.85377 11.258 5.42027 11.4375 5.10065 11.7572C4.78103 12.0768 4.60147 12.5103 4.60147 12.9623C4.60147 13.4143 4.78103 13.8478 5.10065 14.1674C5.42027 14.487 5.85377 14.6666 6.30578 14.6666ZM11.4891 13.5304C11.6398 13.5304 11.7843 13.4705 11.8908 13.364C11.9974 13.2575 12.0572 13.113 12.0572 12.9623C12.0572 12.8116 11.9974 12.6671 11.8908 12.5606C11.7843 12.454 11.6398 12.3942 11.4891 12.3942C11.3385 12.3942 11.194 12.454 11.0874 12.5606C10.9809 12.6671 10.921 12.8116 10.921 12.9623C10.921 13.113 10.9809 13.2575 11.0874 13.364C11.194 13.4705 11.3385 13.5304 11.4891 13.5304ZM11.4891 14.6666C11.7129 14.6666 11.9346 14.6225 12.1413 14.5369C12.3481 14.4512 12.536 14.3257 12.6942 14.1674C12.8525 14.0092 12.978 13.8213 13.0637 13.6145C13.1493 13.4077 13.1934 13.1861 13.1934 12.9623C13.1934 12.7385 13.1493 12.5169 13.0637 12.3101C12.978 12.1033 12.8525 11.9154 12.6942 11.7572C12.536 11.5989 12.3481 11.4734 12.1413 11.3877C11.9346 11.3021 11.7129 11.258 11.4891 11.258C11.0371 11.258 10.6036 11.4375 10.284 11.7572C9.96438 12.0768 9.78482 12.5103 9.78482 12.9623C9.78482 13.4143 9.96438 13.8478 10.284 14.1674C10.6036 14.487 11.0371 14.6666 11.4891 14.6666Z" fill="white"/>
</svg>
